{
  "source": "C:\\Users\\Peter\\Desktop\\stuff\\MIUN\\quantitative_research\\video_compression\\videos\\UVG\\Jockey_1920x1080_120fps_420_8bit_YUV.y4m",
  "output": "C:\\Users\\Peter\\Desktop\\stuff\\MIUN\\quantitative_research\\video_compression\\compressed_videos\\UVG\\vp9\\12\\Jockey_1920x1080_120fps_420_8bit_YUV_vp9.webm",
  "codec": "vp9",
  "ok": "[yuv4mpegpipe @ 0000020dbc3c54c0] Stream #0: not enough frames to estimate rate; consider increasing probesize\nInput #0, yuv4mpegpipe, from 'C:\\Users\\Peter\\Desktop\\stuff\\MIUN\\quantitative_research\\video_compression\\videos\\UVG\\Jockey_1920x1080_120fps_420_8bit_YUV.y4m':\n  Duration: 00:00:05.00, start: 0.000000, bitrate: 2985989 kb/s\n  Stream #0:0: Video: rawvideo (I420 / 0x30323449), yuv420p(progressive), 1920x1080, 120 fps, 120 tbr, 120 tbn\n[out#0/webm @ 0000020dbc3c9480] Codec AVOption b:a (set bitrate (in bits/s)) has not been used for any stream. The most likely reason is either wrong type (e.g. a video option with no video streams) or that it is a private option of some decoder which was not actually used for any stream.\nStream mapping:\n  Stream #0:0 -> #0:0 (rawvideo (native) -> vp9 (libvpx-vp9))\nPress [q] to stop, [?] for help\n[libvpx-vp9 @ 0000020dbc3cc4c0] v1.15.2-100-g40561f514\nOutput #0, webm, to 'C:\\Users\\Peter\\Desktop\\stuff\\MIUN\\quantitative_research\\video_compression\\compressed_videos\\UVG\\vp9\\12\\Jockey_1920x1080_120fps_420_8bit_YUV_vp9.webm':\n  Metadata:\n    encoder         : Lavf62.3.100\n  Stream #0:0: Video: vp9, yuv420p(tv, progressive), 1920x1080, q=2-31, 12000 kb/s, 120 fps, 1k tbn\n    Metadata:\n      encoder         : Lavc62.11.100 libvpx-vp9\n    Side data:\n      cpb: bitrate max/min/avg: 0/0/0 buffer size: 12000000 vbv_delay: N/A\nframe=    0 fps=0.0 q=0.0 size=       0KiB time=N/A bitrate=N/A speed=N/A elapsed=0:00:00.52    \nframe=    0 fps=0.0 q=0.0 size=       0KiB time=N/A bitrate=N/A speed=N/A elapsed=0:00:01.11    \nframe=    1 fps=0.6 q=16.0 size=       0KiB time=00:00:00.00 bitrate= 461.8kbits/s speed=0.00508x elapsed=0:00:01.64    \nframe=    3 fps=1.4 q=48.0 size=       0KiB time=00:00:00.02 bitrate= 153.9kbits/s speed=0.0115x elapsed=0:00:02.17    \nframe=    5 fps=1.8 q=33.0 size=       0KiB time=00:00:00.03 bitrate= 115.4kbits/s speed=0.0122x elapsed=0:00:02.72    \nframe=    6 fps=1.8 q=31.0 size=       0KiB time=00:00:00.05 bitrate=  77.0kbits/s speed=0.0153x elapsed=0:00:03.26    \nframe=    8 fps=2.1 q=29.0 size=       0KiB time=00:00:00.06 bitrate=  57.7kbits/s speed=0.0176x elapsed=0:00:03.78    \nframe=    9 fps=2.1 q=28.0 size=       0KiB time=00:00:00.07 bitrate=  51.3kbits/s speed=0.0174x elapsed=0:00:04.30    \nframe=   11 fps=2.3 q=27.0 size=       0KiB time=00:00:00.09 bitrate=  42.0kbits/s speed=0.0189x elapsed=0:00:04.84    \nframe=   12 fps=2.2 q=27.0 size=       0KiB time=00:00:00.10 bitrate=  38.5kbits/s speed=0.0186x elapsed=0:00:05.38    \nframe=   13 fps=2.2 q=27.0 size=       0KiB time=00:00:00.10 bitrate=  35.5kbits/s speed=0.0184x elapsed=0:00:05.90    \nframe=   14 fps=2.2 q=27.0 size=       0KiB time=00:00:00.11 bitrate=  33.0kbits/s speed=0.0181x elapsed=0:00:06.43    \nframe=   15 fps=2.2 q=27.0 size=       0KiB time=00:00:00.12 bitrate=  30.8kbits/s speed=0.0179x elapsed=0:00:06.97    \nframe=   15 fps=2.0 q=27.0 size=       0KiB time=00:00:00.12 bitrate=  30.8kbits/s speed=0.0166x elapsed=0:00:07.51    \nframe=   16 fps=2.0 q=17.0 size=       0KiB time=00:00:00.13 bitrate=  28.9kbits/s speed=0.0166x elapsed=0:00:08.04    \nframe=   17 fps=2.0 q=27.0 size=       0KiB time=00:00:00.14 bitrate=  27.2kbits/s speed=0.0165x elapsed=0:00:08.58    \nframe=   18 fps=2.0 q=26.0 size=       0KiB time=00:00:00.15 bitrate=  25.7kbits/s speed=0.0164x elapsed=0:00:09.12    \nframe=   19 fps=2.0 q=25.0 size=       0KiB time=00:00:00.15 bitrate=  24.3kbits/s speed=0.0164x elapsed=0:00:09.65    \nframe=   20 fps=2.0 q=26.0 size=       0KiB time=00:00:00.16 bitrate=  23.1kbits/s speed=0.0164x elapsed=0:00:10.18    \nframe=   21 fps=2.0 q=26.0 size=       0KiB time=00:00:00.17 bitrate=  22.0kbits/s speed=0.0163x elapsed=0:00:10.74    \nframe=   22 fps=2.0 q=26.0 size=       0KiB time=00:00:00.18 bitrate=  21.0kbits/s speed=0.0163x elapsed=0:00:11.27    \nframe=   24 fps=2.0 q=26.0 size=       0KiB time=00:00:00.19 bitrate=  20.1kbits/s speed=0.0162x elapsed=0:00:11.82    \nframe=   25 fps=2.0 q=26.0 size=       0KiB time=00:00:00.20 bitrate=  18.5kbits/s speed=0.0168x elapsed=0:00:12.37    \nframe=   26 fps=2.0 q=27.0 size=       0KiB time=00:00:00.21 bitrate=  17.8kbits/s speed=0.0168x elapsed=0:00:12.91    \nframe=   27 fps=2.0 q=27.0 size=       0KiB time=00:00:00.22 bitrate=  17.1kbits/s speed=0.0167x elapsed=0:00:13.44    \nframe=   29 fps=2.1 q=27.0 size=       0KiB time=00:00:00.24 bitrate=  15.9kbits/s speed=0.0173x elapsed=0:00:13.98    \nframe=   30 fps=2.1 q=27.0 size=       0KiB time=00:00:00.25 bitrate=  15.4kbits/s speed=0.0172x elapsed=0:00:14.52    \nframe=   30 fps=2.0 q=27.0 size=       0KiB time=00:00:00.25 bitrate=  15.4kbits/s speed=0.0166x elapsed=0:00:15.06    \nframe=   32 fps=2.1 q=27.0 size=       0KiB time=00:00:00.26 bitrate=  14.4kbits/s speed=0.0171x elapsed=0:00:15.58    \nframe=   33 fps=2.0 q=26.0 size=       0KiB time=00:00:00.27 bitrate=  14.0kbits/s speed=0.0171x elapsed=0:00:16.12    \nframe=   35 fps=2.1 q=26.0 size=       0KiB time=00:00:00.29 bitrate=  13.2kbits/s speed=0.0175x elapsed=0:00:16.65    \nframe=   36 fps=2.1 q=26.0 size=       0KiB time=00:00:00.30 bitrate=  12.8kbits/s speed=0.0174x elapsed=0:00:17.19    \nframe=   38 fps=2.1 q=27.0 size=       0KiB time=00:00:00.31 bitrate=  12.2kbits/s speed=0.0179x elapsed=0:00:17.72    \nframe=   40 fps=2.2 q=27.0 size=       0KiB time=00:00:00.33 bitrate=  11.5kbits/s speed=0.0183x elapsed=0:00:18.26    \nframe=   41 fps=2.2 q=27.0 size=       0KiB time=00:00:00.34 bitrate=  11.3kbits/s speed=0.0182x elapsed=0:00:18.79    \nframe=   43 fps=2.2 q=27.0 size=       0KiB time=00:00:00.35 bitrate=  10.7kbits/s speed=0.0185x elapsed=0:00:19.32    \nframe=   44 fps=2.2 q=27.0 size=       0KiB time=00:00:00.36 bitrate=  10.5kbits/s speed=0.0185x elapsed=0:00:19.87    \nframe=   45 fps=2.2 q=27.0 size=       0KiB time=00:00:00.37 bitrate=  10.3kbits/s speed=0.0184x elapsed=0:00:20.40    \nframe=   45 fps=2.1 q=27.0 size=       0KiB time=00:00:00.37 bitrate=  10.3kbits/s speed=0.0179x elapsed=0:00:20.96    \nframe=   46 fps=2.1 q=17.0 size=       0KiB time=00:00:00.38 bitrate=  10.0kbits/s speed=0.0178x elapsed=0:00:21.50    \nframe=   47 fps=2.1 q=27.0 size=       0KiB time=00:00:00.39 bitrate=   9.8kbits/s speed=0.0178x elapsed=0:00:22.03    \nframe=   48 fps=2.1 q=27.0 size=       0KiB time=00:00:00.40 bitrate=   9.6kbits/s speed=0.0177x elapsed=0:00:22.58    \nframe=   50 fps=2.2 q=27.0 size=       0KiB time=00:00:00.41 bitrate=   9.2kbits/s speed=0.018x elapsed=0:00:23.11    \nframe=   51 fps=2.2 q=27.0 size=       0KiB time=00:00:00.42 bitrate=   9.1kbits/s speed=0.018x elapsed=0:00:23.64    \nframe=   52 fps=2.2 q=28.0 size=       0KiB time=00:00:00.43 bitrate=   8.9kbits/s speed=0.0179x elapsed=0:00:24.18    \nframe=   53 fps=2.1 q=17.0 size=       0KiB time=00:00:00.44 bitrate=   8.7kbits/s speed=0.0179x elapsed=0:00:24.71    \nframe=   54 fps=2.1 q=27.0 size=       0KiB time=00:00:00.45 bitrate=   8.6kbits/s speed=0.0178x elapsed=0:00:25.25    \nframe=   55 fps=2.1 q=27.0 size=       0KiB time=00:00:00.45 bitrate=   8.4kbits/s speed=0.0178x elapsed=0:00:25.77    \nframe=   57 fps=2.2 q=27.0 size=       0KiB time=00:00:00.46 bitrate=   8.2kbits/s speed=0.0177x elapsed=0:00:26.31    \nframe=   58 fps=2.2 q=27.0 size=       0KiB time=00:00:00.48 bitrate=   8.0kbits/s speed=0.018x elapsed=0:00:26.84    \nframe=   59 fps=2.2 q=28.0 size=       0KiB time=00:00:00.49 bitrate=   7.8kbits/s speed=0.0179x elapsed=0:00:27.39    \nframe=   59 fps=2.1 q=28.0 size=       0KiB time=00:00:00.49 bitrate=   7.8kbits/s speed=0.0176x elapsed=0:00:27.94    \nframe=   60 fps=2.1 q=18.0 size=       0KiB time=00:00:00.50 bitrate=   7.7kbits/s speed=0.0176x elapsed=0:00:28.47    \nframe=   61 fps=2.1 q=28.0 size=       0KiB time=00:00:00.50 bitrate=   7.6kbits/s speed=0.0175x elapsed=0:00:29.01    \nframe=   62 fps=2.1 q=27.0 size=       0KiB time=00:00:00.51 bitrate=   7.4kbits/s speed=0.0175x elapsed=0:00:29.54    \nframe=   63 fps=2.1 q=27.0 size=       0KiB time=00:00:00.52 bitrate=   7.3kbits/s speed=0.0175x elapsed=0:00:30.08    \nframe=   64 fps=2.1 q=27.0 size=       0KiB time=00:00:00.53 bitrate=   7.2kbits/s speed=0.0174x elapsed=0:00:30.61    \nframe=   66 fps=2.1 q=28.0 size=       0KiB time=00:00:00.55 bitrate=   7.0kbits/s speed=0.0177x elapsed=0:00:31.15    \nframe=   66 fps=2.1 q=28.0 size=       0KiB time=00:00:00.55 bitrate=   7.0kbits/s speed=0.0174x elapsed=0:00:31.68    \nframe=   67 fps=2.1 q=18.0 size=       0KiB time=00:00:00.55 bitrate=   7.0kbits/s speed=0.0171x elapsed=0:00:32.23    \nframe=   68 fps=2.1 q=28.0 size=       0KiB time=00:00:00.56 bitrate=   6.8kbits/s speed=0.0173x elapsed=0:00:32.76    \nframe=   69 fps=2.1 q=28.0 size=       0KiB time=00:00:00.57 bitrate=   6.7kbits/s speed=0.0173x elapsed=0:00:33.30    \nframe=   70 fps=2.1 q=27.0 size=       0KiB time=00:00:00.58 bitrate=   6.6kbits/s speed=0.0172x elapsed=0:00:33.85    \nframe=   71 fps=2.1 q=27.0 size=       0KiB time=00:00:00.59 bitrate=   6.5kbits/s speed=0.0172x elapsed=0:00:34.38    \nframe=   73 fps=2.1 q=28.0 size=       0KiB time=00:00:00.60 bitrate=   6.3kbits/s speed=0.0174x elapsed=0:00:34.93    \nframe=   73 fps=2.1 q=28.0 size=       0KiB time=00:00:00.60 bitrate=   6.3kbits/s speed=0.0171x elapsed=0:00:35.47    \nframe=   74 fps=2.1 q=18.0 size=       0KiB time=00:00:00.61 bitrate=   6.2kbits/s speed=0.0171x elapsed=0:00:35.99    \nframe=   76 fps=2.1 q=27.0 size=       0KiB time=00:00:00.63 bitrate=   6.1kbits/s speed=0.0173x elapsed=0:00:36.52    \nframe=   78 fps=2.1 q=27.0 size=       0KiB time=00:00:00.65 bitrate=   5.9kbits/s speed=0.0175x elapsed=0:00:37.05    \nframe=   80 fps=2.1 q=27.0 size=       0KiB time=00:00:00.66 bitrate=   5.8kbits/s speed=0.0177x elapsed=0:00:37.57    \nframe=   80 fps=2.1 q=27.0 size=       0KiB time=00:00:00.66 bitrate=   5.8kbits/s speed=0.0175x elapsed=0:00:38.12    \nframe=   81 fps=2.1 q=16.0 size=       0KiB time=00:00:00.67 bitrate=   5.7kbits/s speed=0.0175x elapsed=0:00:38.66    \nframe=   82 fps=2.1 q=28.0 size=       0KiB time=00:00:00.68 bitrate=   5.6kbits/s speed=0.0174x elapsed=0:00:39.19    \nframe=   83 fps=2.1 q=27.0 size=       0KiB time=00:00:00.69 bitrate=   5.6kbits/s speed=0.0174x elapsed=0:00:39.73    \nframe=   84 fps=2.1 q=27.0 size=       0KiB time=00:00:00.70 bitrate=   5.5kbits/s speed=0.0174x elapsed=0:00:40.27    \nframe=   85 fps=2.1 q=27.0 size=       0KiB time=00:00:00.70 bitrate=   5.4kbits/s speed=0.0174x elapsed=0:00:40.82    \nframe=   87 fps=2.1 q=27.0 size=       0KiB time=00:00:00.72 bitrate=   5.3kbits/s speed=0.0175x elapsed=0:00:41.37    \nframe=   87 fps=2.1 q=27.0 size=       0KiB time=00:00:00.72 bitrate=   5.3kbits/s speed=0.0173x elapsed=0:00:41.91    \nframe=   88 fps=2.1 q=16.0 size=       0KiB time=00:00:00.73 bitrate=   5.2kbits/s speed=0.0173x elapsed=0:00:42.45    \nframe=   89 fps=2.1 q=27.0 size=       0KiB time=00:00:00.74 bitrate=   5.2kbits/s speed=0.0173x elapsed=0:00:42.98    \nframe=   91 fps=2.1 q=27.0 size=       0KiB time=00:00:00.75 bitrate=   5.1kbits/s speed=0.0174x elapsed=0:00:43.51    \nframe=   92 fps=2.1 q=28.0 size=       0KiB time=00:00:00.76 bitrate=   5.0kbits/s speed=0.0174x elapsed=0:00:44.04    \nframe=   93 fps=2.1 q=28.0 size=       0KiB time=00:00:00.77 bitrate=   5.0kbits/s speed=0.0174x elapsed=0:00:44.58    \nframe=   94 fps=2.1 q=28.0 size=       0KiB time=00:00:00.78 bitrate=   4.9kbits/s speed=0.0174x elapsed=0:00:45.13    \nframe=   94 fps=2.1 q=28.0 size=       0KiB time=00:00:00.78 bitrate=   4.9kbits/s speed=0.0171x elapsed=0:00:45.67    \nframe=   95 fps=2.1 q=16.0 size=       0KiB time=00:00:00.79 bitrate=   4.9kbits/s speed=0.0171x elapsed=0:00:46.22    \nframe=   96 fps=2.1 q=28.0 size=       0KiB time=00:00:00.80 bitrate=   4.8kbits/s speed=0.0171x elapsed=0:00:46.78    \nframe=   97 fps=2.0 q=27.0 size=       0KiB time=00:00:00.80 bitrate=   4.8kbits/s speed=0.0171x elapsed=0:00:47.33    \nframe=   98 fps=2.0 q=28.0 size=       0KiB time=00:00:00.81 bitrate=   4.7kbits/s speed=0.0171x elapsed=0:00:47.88    \nframe=   99 fps=2.0 q=28.0 size=       0KiB time=00:00:00.82 bitrate=   4.7kbits/s speed=0.017x elapsed=0:00:48.43    \nframe=  100 fps=2.0 q=28.0 size=       0KiB time=00:00:00.83 bitrate=   4.6kbits/s speed=0.017x elapsed=0:00:48.99    \nframe=  101 fps=2.0 q=29.0 size=       0KiB time=00:00:00.84 bitrate=   4.6kbits/s speed=0.017x elapsed=0:00:49.54    \nframe=  101 fps=2.0 q=29.0 size=       0KiB time=00:00:00.84 bitrate=   4.6kbits/s speed=0.0168x elapsed=0:00:50.10    \nframe=  102 fps=2.0 q=16.0 size=       0KiB time=00:00:00.85 bitrate=   4.5kbits/s speed=0.0168x elapsed=0:00:50.65    \nframe=  103 fps=2.0 q=29.0 size=       0KiB time=00:00:00.85 bitrate=   4.5kbits/s speed=0.0168x elapsed=0:00:51.21    \nframe=  104 fps=2.0 q=29.0 size=       0KiB time=00:00:00.86 bitrate=   4.4kbits/s speed=0.0167x elapsed=0:00:51.75    \nframe=  105 fps=2.0 q=29.0 size=       0KiB time=00:00:00.87 bitrate=   4.4kbits/s speed=0.0167x elapsed=0:00:52.29    \nframe=  107 fps=2.0 q=29.0 size=       0KiB time=00:00:00.89 bitrate=   4.3kbits/s speed=0.0169x elapsed=0:00:52.83    \nframe=  108 fps=2.0 q=29.0 size=       0KiB time=00:00:00.90 bitrate=   4.3kbits/s speed=0.0168x elapsed=0:00:53.41    \nframe=  112 fps=2.1 q=29.0 size=       0KiB time=00:00:00.92 bitrate=   4.2kbits/s speed=0.0171x elapsed=0:00:54.06    \nframe=  114 fps=2.1 q=29.0 size=       0KiB time=00:00:00.95 bitrate=   4.1kbits/s speed=0.0174x elapsed=0:00:54.72    \nframe=  116 fps=2.1 q=16.0 size=       0KiB time=00:00:00.95 bitrate=   4.0kbits/s speed=0.0173x elapsed=0:00:55.44    \nframe=  119 fps=2.1 q=29.0 size=       0KiB time=00:00:00.98 bitrate=   3.9kbits/s speed=0.0175x elapsed=0:00:56.21    \nframe=  122 fps=2.1 q=29.0 size=       0KiB time=00:00:01.01 bitrate=   3.8kbits/s speed=0.0178x elapsed=0:00:57.06    \nframe=  122 fps=2.1 q=29.0 size=       0KiB time=00:00:01.01 bitrate=   3.8kbits/s speed=0.0176x elapsed=0:00:57.62    \nframe=  124 fps=2.1 q=31.0 size=       0KiB time=00:00:01.03 bitrate=   3.7kbits/s speed=0.0178x elapsed=0:00:58.18    \nframe=  127 fps=2.2 q=30.0 size=       0KiB time=00:00:01.05 bitrate=   3.6kbits/s speed=0.018x elapsed=0:00:58.69    \nframe=  128 fps=2.2 q=30.0 size=       0KiB time=00:00:01.06 bitrate=   3.6kbits/s speed=0.018x elapsed=0:00:59.23    \nframe=  130 fps=2.2 q=27.0 size=    1280KiB time=00:00:01.07 bitrate=9754.2kbits/s speed=0.018x elapsed=0:00:59.75    \nframe=  132 fps=2.2 q=27.0 size=    1280KiB time=00:00:01.10 bitrate=9532.5kbits/s speed=0.0182x elapsed=0:01:00.31    \nframe=  134 fps=2.2 q=27.0 size=    1280KiB time=00:00:01.11 bitrate=9390.2kbits/s speed=0.0183x elapsed=0:01:00.86    \nframe=  137 fps=2.2 q=27.0 size=    1280KiB time=00:00:01.14 bitrate=9184.6kbits/s speed=0.0186x elapsed=0:01:01.44    \nframe=  139 fps=2.2 q=28.0 size=    1280KiB time=00:00:01.15 bitrate=9052.5kbits/s speed=0.0187x elapsed=0:01:01.97    \nframe=  142 fps=2.3 q=28.0 size=    1280KiB time=00:00:01.18 bitrate=8861.2kbits/s speed=0.0189x elapsed=0:01:02.48    \nframe=  143 fps=2.3 q=28.0 size=    1280KiB time=00:00:01.19 bitrate=8799.2kbits/s speed=0.0189x elapsed=0:01:03.05    \nframe=  145 fps=2.3 q=28.0 size=    1280KiB time=00:00:01.20 bitrate=8677.9kbits/s speed=0.019x elapsed=0:01:03.60    \nframe=  147 fps=2.3 q=27.0 size=    1280KiB time=00:00:01.22 bitrate=8559.8kbits/s speed=0.0191x elapsed=0:01:04.17    \nframe=  149 fps=2.3 q=27.0 size=    1280KiB time=00:00:01.24 bitrate=8444.9kbits/s speed=0.0192x elapsed=0:01:04.76    \nframe=  151 fps=2.3 q=28.0 size=    1280KiB time=00:00:01.25 bitrate=8333.1kbits/s speed=0.0193x elapsed=0:01:05.36    \nframe=  154 fps=2.3 q=28.0 size=    1280KiB time=00:00:01.27 bitrate=8224.1kbits/s speed=0.0193x elapsed=0:01:05.95    \nframe=  156 fps=2.3 q=28.0 size=    1280KiB time=00:00:01.29 bitrate=8118.0kbits/s speed=0.0194x elapsed=0:01:06.52    \nframe=  158 fps=2.4 q=29.0 size=    1280KiB time=00:00:01.31 bitrate=7963.9kbits/s speed=0.0196x elapsed=0:01:07.18    \nframe=  159 fps=2.3 q=13.0 size=    1280KiB time=00:00:01.31 bitrate=7963.9kbits/s speed=0.0194x elapsed=0:01:07.79    \nframe=  161 fps=2.4 q=28.0 size=    1280KiB time=00:00:01.34 bitrate=7815.5kbits/s speed=0.0196x elapsed=0:01:08.43    \nframe=  163 fps=2.4 q=28.0 size=    1280KiB time=00:00:01.35 bitrate=7719.6kbits/s speed=0.0197x elapsed=0:01:08.95    \nframe=  166 fps=2.4 q=28.0 size=    1280KiB time=00:00:01.38 bitrate=7580.1kbits/s speed=0.0199x elapsed=0:01:09.47    \nframe=  168 fps=2.4 q=29.0 size=    1280KiB time=00:00:01.39 bitrate=7534.7kbits/s speed=0.0199x elapsed=0:01:10.00    \nframe=  170 fps=2.4 q=29.0 size=    1280KiB time=00:00:01.41 bitrate=7401.7kbits/s speed=0.0201x elapsed=0:01:10.59    \nframe=  172 fps=2.4 q=29.0 size=    1280KiB time=00:00:01.43 bitrate=7315.6kbits/s speed=0.0202x elapsed=0:01:11.11    \nframe=  173 fps=2.4 q=29.0 size=    1280KiB time=00:00:01.44 bitrate=7273.4kbits/s speed=0.0201x elapsed=0:01:11.62    \nframe=  175 fps=2.4 q=29.0 size=    1280KiB time=00:00:01.45 bitrate=7190.2kbits/s speed=0.0202x elapsed=0:01:12.13    \nframe=  176 fps=2.4 q=28.0 size=    1280KiB time=00:00:01.46 bitrate=7149.4kbits/s speed=0.0202x elapsed=0:01:12.65    \nframe=  178 fps=2.4 q=28.0 size=    1280KiB time=00:00:01.48 bitrate=7069.1kbits/s speed=0.0203x elapsed=0:01:13.16    \nframe=  180 fps=2.4 q=28.0 size=    1280KiB time=00:00:01.50 bitrate=6990.5kbits/s speed=0.0204x elapsed=0:01:13.68    \nframe=  182 fps=2.5 q=28.0 size=    1280KiB time=00:00:01.51 bitrate=6913.7kbits/s speed=0.0204x elapsed=0:01:14.20    \nframe=  184 fps=2.5 q=28.0 size=    1280KiB time=00:00:01.53 bitrate=6838.5kbits/s speed=0.0205x elapsed=0:01:14.71    \nframe=  186 fps=2.5 q=29.0 size=    1280KiB time=00:00:01.55 bitrate=6765.0kbits/s speed=0.0206x elapsed=0:01:15.23    \nframe=  188 fps=2.5 q=29.0 size=    1280KiB time=00:00:01.56 bitrate=6693.0kbits/s speed=0.0207x elapsed=0:01:15.74    \nframe=  189 fps=2.5 q=13.0 size=    1280KiB time=00:00:01.57 bitrate=6657.6kbits/s speed=0.0207x elapsed=0:01:16.26    \nframe=  192 fps=2.5 q=28.0 size=    1280KiB time=00:00:01.60 bitrate=6553.6kbits/s speed=0.0208x elapsed=0:01:16.78    \nframe=  194 fps=2.5 q=28.0 size=    1280KiB time=00:00:01.61 bitrate=6486.0kbits/s speed=0.0209x elapsed=0:01:17.29    \nframe=  196 fps=2.5 q=28.0 size=    1280KiB time=00:00:01.63 bitrate=6419.9kbits/s speed=0.021x elapsed=0:01:17.81    \nframe=  198 fps=2.5 q=28.0 size=    1280KiB time=00:00:01.65 bitrate=6355.0kbits/s speed=0.0211x elapsed=0:01:18.33    \nframe=  200 fps=2.5 q=28.0 size=    1280KiB time=00:00:01.66 bitrate=6291.5kbits/s speed=0.0211x elapsed=0:01:18.86    \nframe=  201 fps=2.5 q=28.0 size=    1280KiB time=00:00:01.67 bitrate=6260.2kbits/s speed=0.0211x elapsed=0:01:19.37    \nframe=  203 fps=2.5 q=28.0 size=    1280KiB time=00:00:01.69 bitrate=6198.5kbits/s speed=0.0212x elapsed=0:01:19.88    \nframe=  203 fps=2.5 q=28.0 size=    1280KiB time=00:00:01.69 bitrate=6198.5kbits/s speed=0.021x elapsed=0:01:20.40    \nframe=  205 fps=2.5 q=29.0 size=    1280KiB time=00:00:01.70 bitrate=6138.0kbits/s speed=0.0211x elapsed=0:01:20.92    \nframe=  207 fps=2.5 q=28.0 size=    1280KiB time=00:00:01.72 bitrate=6078.7kbits/s speed=0.0212x elapsed=0:01:21.44    \nframe=  209 fps=2.6 q=28.0 size=    1280KiB time=00:00:01.74 bitrate=6020.5kbits/s speed=0.0213x elapsed=0:01:21.94    \nframe=  212 fps=2.6 q=29.0 size=    1280KiB time=00:00:01.76 bitrate=5935.3kbits/s speed=0.0214x elapsed=0:01:22.46    \nframe=  215 fps=2.6 q=28.0 size=    1280KiB time=00:00:01.79 bitrate=5852.5kbits/s speed=0.0216x elapsed=0:01:22.98    \nframe=  216 fps=2.6 q=29.0 size=    1280KiB time=00:00:01.80 bitrate=5825.4kbits/s speed=0.0216x elapsed=0:01:23.49    \nframe=  217 fps=2.6 q=29.0 size=    1280KiB time=00:00:01.80 bitrate=5798.6kbits/s speed=0.0215x elapsed=0:01:24.02    \nframe=  218 fps=2.6 q=29.0 size=    1280KiB time=00:00:01.81 bitrate=5772.0kbits/s speed=0.0215x elapsed=0:01:24.52    \nframe=  218 fps=2.6 q=29.0 size=    1280KiB time=00:00:01.81 bitrate=5772.0kbits/s speed=0.0214x elapsed=0:01:25.04    \nframe=  219 fps=2.6 q=18.0 size=    1280KiB time=00:00:01.82 bitrate=5745.6kbits/s speed=0.0213x elapsed=0:01:25.56    \nframe=  220 fps=2.6 q=31.0 size=    1280KiB time=00:00:01.83 bitrate=5719.5kbits/s speed=0.0213x elapsed=0:01:26.08    \nframe=  221 fps=2.6 q=30.0 size=    1280KiB time=00:00:01.84 bitrate=5693.6kbits/s speed=0.0213x elapsed=0:01:26.59    \nframe=  222 fps=2.5 q=30.0 size=    1280KiB time=00:00:01.85 bitrate=5668.0kbits/s speed=0.0212x elapsed=0:01:27.11    \nframe=  223 fps=2.5 q=30.0 size=    1280KiB time=00:00:01.85 bitrate=5642.6kbits/s speed=0.0212x elapsed=0:01:27.63    \nframe=  224 fps=2.5 q=31.0 size=    1280KiB time=00:00:01.86 bitrate=5617.4kbits/s speed=0.0212x elapsed=0:01:28.13    \nframe=  225 fps=2.5 q=31.0 size=    1280KiB time=00:00:01.87 bitrate=5592.4kbits/s speed=0.0211x elapsed=0:01:28.65    \nframe=  225 fps=2.5 q=31.0 size=    1280KiB time=00:00:01.87 bitrate=5592.4kbits/s speed=0.021x elapsed=0:01:29.17    \nframe=  226 fps=2.5 q=19.0 size=    1280KiB time=00:00:01.88 bitrate=5567.7kbits/s speed=0.021x elapsed=0:01:29.68    \nframe=  228 fps=2.5 q=30.0 size=    1280KiB time=00:00:01.90 bitrate=5518.8kbits/s speed=0.0211x elapsed=0:01:30.20    \nframe=  230 fps=2.5 q=31.0 size=    1280KiB time=00:00:01.91 bitrate=5470.8kbits/s speed=0.0211x elapsed=0:01:30.71    \nframe=  231 fps=2.5 q=31.0 size=    1280KiB time=00:00:01.92 bitrate=5447.1kbits/s speed=0.0211x elapsed=0:01:31.22    \nframe=  232 fps=2.5 q=31.0 size=    1280KiB time=00:00:01.93 bitrate=5423.7kbits/s speed=0.0211x elapsed=0:01:31.74    \nframe=  232 fps=2.5 q=31.0 size=    1280KiB time=00:00:01.93 bitrate=5423.7kbits/s speed=0.021x elapsed=0:01:32.27    \nframe=  234 fps=2.5 q=31.0 size=    1280KiB time=00:00:01.95 bitrate=5377.3kbits/s speed=0.021x elapsed=0:01:32.77    \nframe=  235 fps=2.5 q=31.0 size=    1280KiB time=00:00:01.95 bitrate=5354.4kbits/s speed=0.021x elapsed=0:01:33.29    \nframe=  236 fps=2.5 q=31.0 size=    1280KiB time=00:00:01.96 bitrate=5331.7kbits/s speed=0.021x elapsed=0:01:33.81    \nframe=  237 fps=2.5 q=31.0 size=    1280KiB time=00:00:01.97 bitrate=5309.2kbits/s speed=0.0209x elapsed=0:01:34.33    \nframe=  238 fps=2.5 q=31.0 size=    1280KiB time=00:00:01.98 bitrate=5286.9kbits/s speed=0.0209x elapsed=0:01:34.83    \nframe=  238 fps=2.5 q=31.0 size=    1280KiB time=00:00:01.98 bitrate=5286.9kbits/s speed=0.0208x elapsed=0:01:35.36    \nframe=  239 fps=2.5 q=31.0 size=    1280KiB time=00:00:01.99 bitrate=5264.8kbits/s speed=0.0208x elapsed=0:01:35.88    \nframe=  239 fps=2.5 q=31.0 size=    1280KiB time=00:00:01.99 bitrate=5264.8kbits/s speed=0.0207x elapsed=0:01:36.39    \nframe=  240 fps=2.5 q=18.0 size=    1280KiB time=00:00:02.00 bitrate=5242.9kbits/s speed=0.0206x elapsed=0:01:36.90    \nframe=  241 fps=2.5 q=31.0 size=    1280KiB time=00:00:02.00 bitrate=5221.1kbits/s speed=0.0206x elapsed=0:01:37.41    \nframe=  241 fps=2.5 q=31.0 size=    1280KiB time=00:00:02.00 bitrate=5221.1kbits/s speed=0.0205x elapsed=0:01:37.94    \nframe=  243 fps=2.5 q=31.0 size=    1280KiB time=00:00:02.02 bitrate=5178.2kbits/s speed=0.0206x elapsed=0:01:38.45    \nframe=  244 fps=2.5 q=31.0 size=    1280KiB time=00:00:02.03 bitrate=5156.9kbits/s speed=0.0205x elapsed=0:01:38.96    \nframe=  246 fps=2.5 q=31.0 size=    1280KiB time=00:00:02.05 bitrate=5115.0kbits/s speed=0.0206x elapsed=0:01:39.48    \nframe=  246 fps=2.5 q=31.0 size=    1280KiB time=00:00:02.05 bitrate=5115.0kbits/s speed=0.0205x elapsed=0:01:40.00    \nframe=  248 fps=2.5 q=33.0 size=    1280KiB time=00:00:02.06 bitrate=5073.8kbits/s speed=0.0206x elapsed=0:01:40.51    \nframe=  249 fps=2.5 q=32.0 size=    1280KiB time=00:00:02.07 bitrate=5053.4kbits/s speed=0.0205x elapsed=0:01:41.03    \nframe=  250 fps=2.5 q=32.0 size=    1280KiB time=00:00:02.08 bitrate=5033.2kbits/s speed=0.0205x elapsed=0:01:41.54    \nframe=  251 fps=2.5 q=32.0 size=    1280KiB time=00:00:02.09 bitrate=5013.1kbits/s speed=0.0205x elapsed=0:01:42.05    \nframe=  251 fps=2.4 q=32.0 size=    1280KiB time=00:00:02.09 bitrate=5013.1kbits/s speed=0.0204x elapsed=0:01:42.57    \nframe=  252 fps=2.4 q=20.0 size=    1280KiB time=00:00:02.10 bitrate=4993.2kbits/s speed=0.0204x elapsed=0:01:43.10    \nframe=  253 fps=2.4 q=32.0 size=    1280KiB time=00:00:02.10 bitrate=4973.5kbits/s speed=0.0203x elapsed=0:01:43.60    \nframe=  254 fps=2.4 q=32.0 size=    1280KiB time=00:00:02.11 bitrate=4953.9kbits/s speed=0.0203x elapsed=0:01:44.12    \nframe=  255 fps=2.4 q=32.0 size=    1280KiB time=00:00:02.12 bitrate=4934.5kbits/s speed=0.0203x elapsed=0:01:44.63    \nframe=  256 fps=2.4 q=32.0 size=    1280KiB time=00:00:02.13 bitrate=4915.2kbits/s speed=0.0203x elapsed=0:01:45.16    \nframe=  256 fps=2.4 q=32.0 size=    1280KiB time=00:00:02.13 bitrate=4915.2kbits/s speed=0.0202x elapsed=0:01:45.67    \nframe=  256 fps=2.4 q=32.0 size=    1280KiB time=00:00:02.13 bitrate=4915.2kbits/s speed=0.0201x elapsed=0:01:46.18    \nframe=  258 fps=2.4 q=30.0 size=    3072KiB time=00:00:02.15 bitrate=11705.0kbits/s speed=0.0201x elapsed=0:01:46.70    \nframe=  259 fps=2.4 q=30.0 size=    3072KiB time=00:00:02.15 bitrate=11659.8kbits/s speed=0.0201x elapsed=0:01:47.21    \nframe=  260 fps=2.4 q=30.0 size=    3072KiB time=00:00:02.16 bitrate=11615.0kbits/s speed=0.0201x elapsed=0:01:47.72    \nframe=  261 fps=2.4 q=30.0 size=    3072KiB time=00:00:02.17 bitrate=11570.5kbits/s speed=0.0201x elapsed=0:01:48.25    \nframe=  263 fps=2.4 q=31.0 size=    3072KiB time=00:00:02.19 bitrate=11482.5kbits/s speed=0.0202x elapsed=0:01:48.76    \nframe=  263 fps=2.4 q=31.0 size=    3072KiB time=00:00:02.19 bitrate=11482.5kbits/s speed=0.0201x elapsed=0:01:49.27    \nframe=  265 fps=2.4 q=31.0 size=    3072KiB time=00:00:02.20 bitrate=11395.8kbits/s speed=0.0201x elapsed=0:01:49.80    \nframe=  266 fps=2.4 q=30.0 size=    3072KiB time=00:00:02.21 bitrate=11353.0kbits/s speed=0.0201x elapsed=0:01:50.31    \nframe=  267 fps=2.4 q=30.0 size=    3072KiB time=00:00:02.22 bitrate=11310.5kbits/s speed=0.0201x elapsed=0:01:50.82    \nframe=  268 fps=2.4 q=30.0 size=    3072KiB time=00:00:02.23 bitrate=11268.3kbits/s speed=0.0201x elapsed=0:01:51.34    \nframe=  269 fps=2.4 q=31.0 size=    3072KiB time=00:00:02.24 bitrate=11226.4kbits/s speed=0.02x elapsed=0:01:51.86    \nframe=  270 fps=2.4 q=31.0 size=    3072KiB time=00:00:02.25 bitrate=11184.8kbits/s speed=0.02x elapsed=0:01:52.37    \nframe=  270 fps=2.4 q=31.0 size=    3072KiB time=00:00:02.25 bitrate=11184.8kbits/s speed=0.0199x elapsed=0:01:52.89    \nframe=  270 fps=2.4 q=31.0 size=    3072KiB time=00:00:02.25 bitrate=11184.8kbits/s speed=0.0198x elapsed=0:01:53.41    \nframe=  271 fps=2.4 q=18.0 size=    3072KiB time=00:00:02.25 bitrate=11143.5kbits/s speed=0.0198x elapsed=0:01:53.92    \nframe=  272 fps=2.4 q=31.0 size=    3072KiB time=00:00:02.26 bitrate=11102.6kbits/s speed=0.0198x elapsed=0:01:54.44    \nframe=  273 fps=2.4 q=30.0 size=    3072KiB time=00:00:02.27 bitrate=11061.9kbits/s speed=0.0198x elapsed=0:01:54.95    \nframe=  274 fps=2.4 q=30.0 size=    3072KiB time=00:00:02.28 bitrate=11021.5kbits/s speed=0.0198x elapsed=0:01:55.47    \nframe=  275 fps=2.4 q=31.0 size=    3072KiB time=00:00:02.29 bitrate=10981.4kbits/s speed=0.0198x elapsed=0:01:55.99    \nframe=  276 fps=2.4 q=31.0 size=    3072KiB time=00:00:02.30 bitrate=10941.7kbits/s speed=0.0197x elapsed=0:01:56.49    \nframe=  277 fps=2.4 q=31.0 size=    3072KiB time=00:00:02.30 bitrate=10902.2kbits/s speed=0.0197x elapsed=0:01:57.02    \nframe=  278 fps=2.4 q=18.0 size=    3072KiB time=00:00:02.31 bitrate=10862.9kbits/s speed=0.0197x elapsed=0:01:57.53    \nframe=  280 fps=2.4 q=31.0 size=    3072KiB time=00:00:02.33 bitrate=10785.4kbits/s speed=0.0198x elapsed=0:01:58.04    \nframe=  281 fps=2.4 q=31.0 size=    3072KiB time=00:00:02.34 bitrate=10747.0kbits/s speed=0.0197x elapsed=0:01:58.56    \nframe=  282 fps=2.4 q=31.0 size=    3072KiB time=00:00:02.35 bitrate=10708.9kbits/s speed=0.0197x elapsed=0:01:59.07    \nframe=  283 fps=2.4 q=32.0 size=    3072KiB time=00:00:02.35 bitrate=10671.0kbits/s speed=0.0197x elapsed=0:01:59.58    \nframe=  284 fps=2.4 q=33.0 size=    3072KiB time=00:00:02.36 bitrate=10633.4kbits/s speed=0.0197x elapsed=0:02:00.10    \nframe=  284 fps=2.4 q=33.0 size=    3072KiB time=00:00:02.36 bitrate=10633.4kbits/s speed=0.0196x elapsed=0:02:00.62    \nframe=  285 fps=2.4 q=19.0 size=    3072KiB time=00:00:02.37 bitrate=10596.1kbits/s speed=0.0196x elapsed=0:02:01.13    \nframe=  286 fps=2.4 q=34.0 size=    3072KiB time=00:00:02.38 bitrate=10559.1kbits/s speed=0.0196x elapsed=0:02:01.65    \nframe=  287 fps=2.3 q=34.0 size=    3072KiB time=00:00:02.39 bitrate=10522.3kbits/s speed=0.0196x elapsed=0:02:02.17    \nframe=  287 fps=2.3 q=34.0 size=    3072KiB time=00:00:02.39 bitrate=10522.3kbits/s speed=0.0195x elapsed=0:02:02.69    \nframe=  288 fps=2.3 q=35.0 size=    3072KiB time=00:00:02.40 bitrate=10485.8kbits/s speed=0.0195x elapsed=0:02:03.21    \nframe=  289 fps=2.3 q=35.0 size=    3072KiB time=00:00:02.40 bitrate=10449.5kbits/s speed=0.0195x elapsed=0:02:03.73    \nframe=  290 fps=2.3 q=36.0 size=    3072KiB time=00:00:02.41 bitrate=10413.4kbits/s speed=0.0194x elapsed=0:02:04.25    \nframe=  291 fps=2.3 q=37.0 size=    3072KiB time=00:00:02.42 bitrate=10377.7kbits/s speed=0.0194x elapsed=0:02:04.77    \nframe=  291 fps=2.3 q=37.0 size=    3072KiB time=00:00:02.42 bitrate=10377.7kbits/s speed=0.0194x elapsed=0:02:05.29    \nframe=  293 fps=2.3 q=37.0 size=    3072KiB time=00:00:02.44 bitrate=10306.8kbits/s speed=0.0194x elapsed=0:02:05.81    \nframe=  294 fps=2.3 q=37.0 size=    3072KiB time=00:00:02.45 bitrate=10271.8kbits/s speed=0.0194x elapsed=0:02:06.32    \nframe=  295 fps=2.3 q=37.0 size=    3072KiB time=00:00:02.45 bitrate=10236.9kbits/s speed=0.0194x elapsed=0:02:06.84    \nframe=  296 fps=2.3 q=37.0 size=    3072KiB time=00:00:02.46 bitrate=10202.4kbits/s speed=0.0194x elapsed=0:02:07.35    \nframe=  297 fps=2.3 q=38.0 size=    3072KiB time=00:00:02.47 bitrate=10168.0kbits/s speed=0.0194x elapsed=0:02:07.87    \nframe=  298 fps=2.3 q=38.0 size=    3072KiB time=00:00:02.48 bitrate=10133.9kbits/s speed=0.0193x elapsed=0:02:08.39    \nframe=  298 fps=2.3 q=38.0 size=    3072KiB time=00:00:02.48 bitrate=10133.9kbits/s speed=0.0193x elapsed=0:02:08.91    \nframe=  299 fps=2.3 q=25.0 size=    3072KiB time=00:00:02.49 bitrate=10100.0kbits/s speed=0.0192x elapsed=0:02:09.44    \nframe=  300 fps=2.3 q=38.0 size=    3072KiB time=00:00:02.50 bitrate=10066.3kbits/s speed=0.0192x elapsed=0:02:09.95    \nframe=  301 fps=2.3 q=38.0 size=    3072KiB time=00:00:02.50 bitrate=10032.9kbits/s speed=0.0192x elapsed=0:02:10.47    \nframe=  302 fps=2.3 q=38.0 size=    3072KiB time=00:00:02.51 bitrate=9999.7kbits/s speed=0.0192x elapsed=0:02:10.98    \nframe=  303 fps=2.3 q=38.0 size=    3072KiB time=00:00:02.52 bitrate=9966.7kbits/s speed=0.0192x elapsed=0:02:11.49    \nframe=  304 fps=2.3 q=39.0 size=    3072KiB time=00:00:02.53 bitrate=9933.9kbits/s speed=0.0192x elapsed=0:02:12.02    \nframe=  305 fps=2.3 q=39.0 size=    3072KiB time=00:00:02.54 bitrate=9901.3kbits/s speed=0.0192x elapsed=0:02:12.55    \nframe=  305 fps=2.3 q=39.0 size=    3072KiB time=00:00:02.54 bitrate=9901.3kbits/s speed=0.0191x elapsed=0:02:13.06    \nframe=  306 fps=2.3 q=27.0 size=    3072KiB time=00:00:02.55 bitrate=9869.0kbits/s speed=0.0191x elapsed=0:02:13.57    \nframe=  307 fps=2.3 q=40.0 size=    3072KiB time=00:00:02.55 bitrate=9836.8kbits/s speed=0.0191x elapsed=0:02:14.09    \nframe=  308 fps=2.3 q=40.0 size=    3072KiB time=00:00:02.56 bitrate=9804.9kbits/s speed=0.0191x elapsed=0:02:14.60    \nframe=  310 fps=2.3 q=40.0 size=    3072KiB time=00:00:02.58 bitrate=9741.6kbits/s speed=0.0191x elapsed=0:02:15.11    \nframe=  311 fps=2.3 q=41.0 size=    3072KiB time=00:00:02.59 bitrate=9710.3kbits/s speed=0.0191x elapsed=0:02:15.63    \nframe=  312 fps=2.3 q=41.0 size=    3072KiB time=00:00:02.60 bitrate=9679.2kbits/s speed=0.0191x elapsed=0:02:16.16    \nframe=  313 fps=2.3 q=28.0 size=    3072KiB time=00:00:02.60 bitrate=9648.2kbits/s speed=0.0191x elapsed=0:02:16.68    \nframe=  314 fps=2.3 q=41.0 size=    3072KiB time=00:00:02.61 bitrate=9617.5kbits/s speed=0.0191x elapsed=0:02:17.19    \nframe=  315 fps=2.3 q=40.0 size=    3072KiB time=00:00:02.62 bitrate=9587.0kbits/s speed=0.0191x elapsed=0:02:17.71    \nframe=  316 fps=2.3 q=40.0 size=    3072KiB time=00:00:02.63 bitrate=9556.6kbits/s speed=0.019x elapsed=0:02:18.24    \nframe=  317 fps=2.3 q=39.0 size=    3072KiB time=00:00:02.64 bitrate=9526.5kbits/s speed=0.019x elapsed=0:02:18.76    \nframe=  318 fps=2.3 q=39.0 size=    3072KiB time=00:00:02.65 bitrate=9496.5kbits/s speed=0.019x elapsed=0:02:19.27    \nframe=  319 fps=2.3 q=39.0 size=    3072KiB time=00:00:02.65 bitrate=9466.8kbits/s speed=0.019x elapsed=0:02:19.79    \nframe=  320 fps=2.3 q=28.0 size=    3072KiB time=00:00:02.66 bitrate=9437.2kbits/s speed=0.019x elapsed=0:02:20.30    \nframe=  321 fps=2.3 q=39.0 size=    3072KiB time=00:00:02.67 bitrate=9407.8kbits/s speed=0.019x elapsed=0:02:20.82    \nframe=  322 fps=2.3 q=39.0 size=    3072KiB time=00:00:02.68 bitrate=9378.6kbits/s speed=0.019x elapsed=0:02:21.34    \nframe=  323 fps=2.3 q=39.0 size=    3072KiB time=00:00:02.69 bitrate=9349.5kbits/s speed=0.019x elapsed=0:02:21.85    \nframe=  324 fps=2.3 q=38.0 size=    3072KiB time=00:00:02.70 bitrate=9320.7kbits/s speed=0.019x elapsed=0:02:22.37    \nframe=  325 fps=2.3 q=38.0 size=    3072KiB time=00:00:02.70 bitrate=9292.0kbits/s speed=0.019x elapsed=0:02:22.89    \nframe=  326 fps=2.3 q=38.0 size=    3072KiB time=00:00:02.71 bitrate=9263.5kbits/s speed=0.0189x elapsed=0:02:23.42    \nframe=  327 fps=2.3 q=26.0 size=    3072KiB time=00:00:02.72 bitrate=9235.2kbits/s speed=0.0189x elapsed=0:02:23.94    \nframe=  329 fps=2.3 q=37.0 size=    3072KiB time=00:00:02.74 bitrate=9179.0kbits/s speed=0.019x elapsed=0:02:24.45    \nframe=  330 fps=2.3 q=37.0 size=    3072KiB time=00:00:02.75 bitrate=9151.2kbits/s speed=0.019x elapsed=0:02:24.97    \nframe=  331 fps=2.3 q=36.0 size=    3072KiB time=00:00:02.75 bitrate=9123.6kbits/s speed=0.019x elapsed=0:02:25.49    \nframe=  332 fps=2.3 q=35.0 size=    3072KiB time=00:00:02.76 bitrate=9096.1kbits/s speed=0.0189x elapsed=0:02:26.01    \nframe=  333 fps=2.3 q=35.0 size=    3072KiB time=00:00:02.77 bitrate=9068.8kbits/s speed=0.0189x elapsed=0:02:26.53    \nframe=  333 fps=2.3 q=35.0 size=    3072KiB time=00:00:02.77 bitrate=9068.8kbits/s speed=0.0189x elapsed=0:02:27.06    \nframe=  333 fps=2.3 q=35.0 size=    3072KiB time=00:00:02.77 bitrate=9068.8kbits/s speed=0.0188x elapsed=0:02:27.57    \nframe=  334 fps=2.3 q=12.0 size=    3072KiB time=00:00:02.78 bitrate=9041.6kbits/s speed=0.0188x elapsed=0:02:28.08    \nframe=  335 fps=2.3 q=38.0 size=    3072KiB time=00:00:02.79 bitrate=9014.6kbits/s speed=0.0188x elapsed=0:02:28.61    \nframe=  336 fps=2.3 q=36.0 size=    3072KiB time=00:00:02.80 bitrate=8987.8kbits/s speed=0.0188x elapsed=0:02:29.12    \nframe=  338 fps=2.3 q=36.0 size=    3072KiB time=00:00:02.81 bitrate=8934.6kbits/s speed=0.0188x elapsed=0:02:29.64    \nframe=  340 fps=2.3 q=37.0 size=    3072KiB time=00:00:02.83 bitrate=8882.1kbits/s speed=0.0189x elapsed=0:02:30.15    \nframe=  341 fps=2.3 q=36.0 size=    3072KiB time=00:00:02.84 bitrate=8856.0kbits/s speed=0.0189x elapsed=0:02:30.67    \nframe=  343 fps=2.3 q=36.0 size=    3072KiB time=00:00:02.85 bitrate=8804.4kbits/s speed=0.0189x elapsed=0:02:31.18    \nframe=  344 fps=2.3 q=36.0 size=    3072KiB time=00:00:02.86 bitrate=8778.8kbits/s speed=0.0189x elapsed=0:02:31.70    \nframe=  346 fps=2.3 q=36.0 size=    3072KiB time=00:00:02.88 bitrate=8728.0kbits/s speed=0.0189x elapsed=0:02:32.21    \nframe=  347 fps=2.3 q=36.0 size=    3072KiB time=00:00:02.89 bitrate=8702.9kbits/s speed=0.0189x elapsed=0:02:32.73    \nframe=  348 fps=2.3 q=36.0 size=    3072KiB time=00:00:02.90 bitrate=8677.9kbits/s speed=0.0189x elapsed=0:02:33.26    \nframe=  348 fps=2.3 q=36.0 size=    3072KiB time=00:00:02.90 bitrate=8677.9kbits/s speed=0.0189x elapsed=0:02:33.80    \nframe=  348 fps=2.3 q=36.0 size=    3072KiB time=00:00:02.90 bitrate=8677.9kbits/s speed=0.0188x elapsed=0:02:34.32    \nframe=  349 fps=2.3 q=13.0 size=    3072KiB time=00:00:02.90 bitrate=8653.0kbits/s speed=0.0188x elapsed=0:02:34.84    \nframe=  350 fps=2.3 q=36.0 size=    3072KiB time=00:00:02.91 bitrate=8628.3kbits/s speed=0.0188x elapsed=0:02:35.36    \nframe=  351 fps=2.3 q=35.0 size=    3072KiB time=00:00:02.92 bitrate=8603.7kbits/s speed=0.0188x elapsed=0:02:35.89    \nframe=  352 fps=2.3 q=35.0 size=    3072KiB time=00:00:02.93 bitrate=8579.3kbits/s speed=0.0188x elapsed=0:02:36.42    \nframe=  353 fps=2.2 q=35.0 size=    3072KiB time=00:00:02.94 bitrate=8555.0kbits/s speed=0.0187x elapsed=0:02:36.96    \nframe=  354 fps=2.2 q=36.0 size=    3072KiB time=00:00:02.95 bitrate=8530.8kbits/s speed=0.0187x elapsed=0:02:37.47    \nframe=  356 fps=2.3 q=36.0 size=    3072KiB time=00:00:02.96 bitrate=8482.9kbits/s speed=0.0188x elapsed=0:02:37.99    \nframe=  357 fps=2.3 q=37.0 size=    3072KiB time=00:00:02.97 bitrate=8459.1kbits/s speed=0.0188x elapsed=0:02:38.51    \nframe=  359 fps=2.3 q=37.0 size=    3072KiB time=00:00:02.99 bitrate=8412.0kbits/s speed=0.0188x elapsed=0:02:39.02    \nframe=  360 fps=2.3 q=36.0 size=    3072KiB time=00:00:03.00 bitrate=8388.6kbits/s speed=0.0188x elapsed=0:02:39.56    \nframe=  362 fps=2.3 q=36.0 size=    3072KiB time=00:00:03.01 bitrate=8342.3kbits/s speed=0.0188x elapsed=0:02:40.09    \nframe=  363 fps=2.3 q=35.0 size=    3072KiB time=00:00:03.02 bitrate=8319.3kbits/s speed=0.0188x elapsed=0:02:40.62    \nframe=  363 fps=2.3 q=35.0 size=    3072KiB time=00:00:03.02 bitrate=8319.3kbits/s speed=0.0188x elapsed=0:02:41.14    \nframe=  363 fps=2.2 q=35.0 size=    3072KiB time=00:00:03.02 bitrate=8319.3kbits/s speed=0.0187x elapsed=0:02:41.67    \nframe=  364 fps=2.2 q=13.0 size=    3072KiB time=00:00:03.03 bitrate=8296.4kbits/s speed=0.0187x elapsed=0:02:42.19    \nframe=  366 fps=2.2 q=38.0 size=    3072KiB time=00:00:03.05 bitrate=8251.1kbits/s speed=0.0187x elapsed=0:02:42.71    \nframe=  367 fps=2.2 q=37.0 size=    3072KiB time=00:00:03.05 bitrate=8228.6kbits/s speed=0.0187x elapsed=0:02:43.22    \nframe=  369 fps=2.3 q=36.0 size=    3072KiB time=00:00:03.06 bitrate=8206.2kbits/s speed=0.0187x elapsed=0:02:43.75    \nframe=  370 fps=2.3 q=36.0 size=    3072KiB time=00:00:03.08 bitrate=8161.9kbits/s speed=0.0188x elapsed=0:02:44.28    \nframe=  371 fps=2.3 q=36.0 size=    3072KiB time=00:00:03.09 bitrate=8139.9kbits/s speed=0.0188x elapsed=0:02:44.81    \nframe=  372 fps=2.2 q=36.0 size=    3072KiB time=00:00:03.10 bitrate=8118.0kbits/s speed=0.0187x elapsed=0:02:45.34    \nframe=  373 fps=2.2 q=36.0 size=    3072KiB time=00:00:03.10 bitrate=8096.2kbits/s speed=0.0187x elapsed=0:02:45.86    \nframe=  373 fps=2.2 q=36.0 size=    3072KiB time=00:00:03.10 bitrate=8096.2kbits/s speed=0.0187x elapsed=0:02:46.39    \nframe=  374 fps=2.2 q=13.0 size=    3072KiB time=00:00:03.11 bitrate=8074.6kbits/s speed=0.0187x elapsed=0:02:46.91    \nframe=  376 fps=2.2 q=34.0 size=    3072KiB time=00:00:03.13 bitrate=8031.6kbits/s speed=0.0187x elapsed=0:02:47.43    \nframe=  378 fps=2.3 q=34.0 size=    3072KiB time=00:00:03.15 bitrate=7989.2kbits/s speed=0.0188x elapsed=0:02:47.94    \nframe=  379 fps=2.2 q=34.0 size=    3072KiB time=00:00:03.15 bitrate=7968.1kbits/s speed=0.0187x elapsed=0:02:48.46    \nframe=  381 fps=2.3 q=34.0 size=    3072KiB time=00:00:03.17 bitrate=7926.2kbits/s speed=0.0188x elapsed=0:02:48.99    \nframe=  382 fps=2.3 q=34.0 size=    3072KiB time=00:00:03.18 bitrate=7905.5kbits/s speed=0.0188x elapsed=0:02:49.52    \nframe=  383 fps=2.3 q=34.0 size=    3072KiB time=00:00:03.19 bitrate=7884.9kbits/s speed=0.0188x elapsed=0:02:50.07    \nframe=  384 fps=2.3 q=34.0 size=    3072KiB time=00:00:03.20 bitrate=7864.3kbits/s speed=0.0188x elapsed=0:02:50.59    \nframe=  384 fps=2.2 q=34.0 size=    3072KiB time=00:00:03.20 bitrate=7864.3kbits/s speed=0.0187x elapsed=0:02:51.12    \nframe=  385 fps=2.2 q=13.0 size=    3072KiB time=00:00:03.20 bitrate=7843.9kbits/s speed=0.0187x elapsed=0:02:51.66    \nframe=  386 fps=2.2 q=32.0 size=    4352KiB time=00:00:03.21 bitrate=11083.4kbits/s speed=0.0187x elapsed=0:02:52.19    \nframe=  387 fps=2.2 q=31.0 size=    4352KiB time=00:00:03.22 bitrate=11054.8kbits/s speed=0.0187x elapsed=0:02:52.72    \nframe=  389 fps=2.2 q=32.0 size=    4352KiB time=00:00:03.24 bitrate=10997.9kbits/s speed=0.0187x elapsed=0:02:53.24    \nframe=  391 fps=2.3 q=32.0 size=    4352KiB time=00:00:03.25 bitrate=10941.7kbits/s speed=0.0188x elapsed=0:02:53.76    \nframe=  393 fps=2.3 q=32.0 size=    4352KiB time=00:00:03.27 bitrate=10886.0kbits/s speed=0.0188x elapsed=0:02:54.27    \nframe=  395 fps=2.3 q=31.0 size=    4352KiB time=00:00:03.29 bitrate=10830.9kbits/s speed=0.0188x elapsed=0:02:54.81    \nframe=  397 fps=2.3 q=31.0 size=    4352KiB time=00:00:03.30 bitrate=10776.3kbits/s speed=0.0189x elapsed=0:02:55.33    \nframe=  398 fps=2.3 q=31.0 size=    4352KiB time=00:00:03.31 bitrate=10749.2kbits/s speed=0.0189x elapsed=0:02:55.84    \nframe=  399 fps=2.3 q=31.0 size=    4352KiB time=00:00:03.32 bitrate=10722.3kbits/s speed=0.0189x elapsed=0:02:56.37    \nframe=  399 fps=2.3 q=31.0 size=    4352KiB time=00:00:03.32 bitrate=10722.3kbits/s speed=0.0188x elapsed=0:02:56.89    \nframe=  399 fps=2.2 q=31.0 size=    4352KiB time=00:00:03.32 bitrate=10722.3kbits/s speed=0.0187x elapsed=0:02:57.42    \nframe=  400 fps=2.2 q=9.0 size=    4352KiB time=00:00:03.33 bitrate=10695.5kbits/s speed=0.0187x elapsed=0:02:57.93    \nframe=  401 fps=2.2 q=31.0 size=    4352KiB time=00:00:03.34 bitrate=10668.8kbits/s speed=0.0187x elapsed=0:02:58.46    \nframe=  403 fps=2.3 q=30.0 size=    4352KiB time=00:00:03.35 bitrate=10615.9kbits/s speed=0.0188x elapsed=0:02:58.98    \nframe=  404 fps=2.3 q=29.0 size=    4352KiB time=00:00:03.36 bitrate=10589.6kbits/s speed=0.0188x elapsed=0:02:59.49    \nframe=  405 fps=2.2 q=29.0 size=    4352KiB time=00:00:03.37 bitrate=10563.4kbits/s speed=0.0187x elapsed=0:03:00.01    \nframe=  407 fps=2.3 q=28.0 size=    4352KiB time=00:00:03.39 bitrate=10511.5kbits/s speed=0.0188x elapsed=0:03:00.53    \nframe=  408 fps=2.3 q=27.0 size=    4352KiB time=00:00:03.40 bitrate=10485.8kbits/s speed=0.0188x elapsed=0:03:01.04    \nframe=  409 fps=2.3 q=27.0 size=    4352KiB time=00:00:03.40 bitrate=10460.1kbits/s speed=0.0188x elapsed=0:03:01.56    \nframe=  410 fps=2.3 q=27.0 size=    4352KiB time=00:00:03.41 bitrate=10434.6kbits/s speed=0.0188x elapsed=0:03:02.09    \nframe=  411 fps=2.3 q=27.0 size=    4352KiB time=00:00:03.42 bitrate=10409.2kbits/s speed=0.0188x elapsed=0:03:02.60    \nframe=  412 fps=2.2 q=27.0 size=    4352KiB time=00:00:03.43 bitrate=10384.0kbits/s speed=0.0187x elapsed=0:03:03.12    \nframe=  414 fps=2.3 q=26.0 size=    4352KiB time=00:00:03.45 bitrate=10333.8kbits/s speed=0.0188x elapsed=0:03:03.63    \nframe=  414 fps=2.2 q=26.0 size=    4352KiB time=00:00:03.45 bitrate=10333.8kbits/s speed=0.0187x elapsed=0:03:04.15    \nframe=  414 fps=2.2 q=26.0 size=    4352KiB time=00:00:03.45 bitrate=10333.8kbits/s speed=0.0187x elapsed=0:03:04.67    \nframe=  415 fps=2.2 q=10.0 size=    4352KiB time=00:00:03.45 bitrate=10308.9kbits/s speed=0.0187x elapsed=0:03:05.19    \nframe=  417 fps=2.2 q=26.0 size=    4352KiB time=00:00:03.47 bitrate=10259.4kbits/s speed=0.0187x elapsed=0:03:05.69    \nframe=  419 fps=2.3 q=25.0 size=    4352KiB time=00:00:03.49 bitrate=10210.5kbits/s speed=0.0188x elapsed=0:03:06.21    \nframe=  420 fps=2.2 q=25.0 size=    4352KiB time=00:00:03.50 bitrate=10186.2kbits/s speed=0.0187x elapsed=0:03:06.73    \nframe=  421 fps=2.2 q=25.0 size=    4352KiB time=00:00:03.50 bitrate=10162.0kbits/s speed=0.0187x elapsed=0:03:07.25    \nframe=  423 fps=2.3 q=25.0 size=    4352KiB time=00:00:03.52 bitrate=10113.9kbits/s speed=0.0188x elapsed=0:03:07.76    \nframe=  424 fps=2.3 q=25.0 size=    4352KiB time=00:00:03.53 bitrate=10090.1kbits/s speed=0.0188x elapsed=0:03:08.27    \nframe=  425 fps=2.3 q=25.0 size=    4352KiB time=00:00:03.54 bitrate=10066.3kbits/s speed=0.0188x elapsed=0:03:08.80    \nframe=  426 fps=2.3 q=25.0 size=    4352KiB time=00:00:03.55 bitrate=10042.7kbits/s speed=0.0188x elapsed=0:03:09.32    \nframe=  427 fps=2.2 q=25.0 size=    4352KiB time=00:00:03.55 bitrate=10019.2kbits/s speed=0.0187x elapsed=0:03:09.84    \nframe=  428 fps=2.2 q=25.0 size=    4352KiB time=00:00:03.56 bitrate=9995.8kbits/s speed=0.0187x elapsed=0:03:10.36    \nframe=  429 fps=2.2 q=25.0 size=    4352KiB time=00:00:03.57 bitrate=9972.5kbits/s speed=0.0187x elapsed=0:03:10.87    \nframe=  429 fps=2.2 q=25.0 size=    4352KiB time=00:00:03.57 bitrate=9972.5kbits/s speed=0.0187x elapsed=0:03:11.38    \nframe=  429 fps=2.2 q=25.0 size=    4352KiB time=00:00:03.57 bitrate=9972.5kbits/s speed=0.0186x elapsed=0:03:11.91    \nframe=  431 fps=2.2 q=19.0 size=    4352KiB time=00:00:03.59 bitrate=9926.2kbits/s speed=0.0187x elapsed=0:03:12.43    \nframe=  432 fps=2.2 q=20.0 size=    4352KiB time=00:00:03.60 bitrate=9903.2kbits/s speed=0.0187x elapsed=0:03:12.96    \nframe=  434 fps=2.2 q=21.0 size=    4352KiB time=00:00:03.61 bitrate=9857.6kbits/s speed=0.0187x elapsed=0:03:13.48    \nframe=  435 fps=2.2 q=22.0 size=    4352KiB time=00:00:03.62 bitrate=9834.9kbits/s speed=0.0187x elapsed=0:03:13.99    \nframe=  436 fps=2.2 q=22.0 size=    4352KiB time=00:00:03.63 bitrate=9812.4kbits/s speed=0.0187x elapsed=0:03:14.51    \nframe=  437 fps=2.2 q=22.0 size=    4352KiB time=00:00:03.64 bitrate=9789.9kbits/s speed=0.0187x elapsed=0:03:15.03    \nframe=  438 fps=2.2 q=22.0 size=    4352KiB time=00:00:03.65 bitrate=9767.6kbits/s speed=0.0187x elapsed=0:03:15.55    \nframe=  439 fps=2.2 q=22.0 size=    4352KiB time=00:00:03.65 bitrate=9745.3kbits/s speed=0.0187x elapsed=0:03:16.08    \nframe=  440 fps=2.2 q=23.0 size=    4352KiB time=00:00:03.66 bitrate=9723.2kbits/s speed=0.0187x elapsed=0:03:16.58    \nframe=  441 fps=2.2 q=23.0 size=    4352KiB time=00:00:03.67 bitrate=9701.1kbits/s speed=0.0186x elapsed=0:03:17.10    \nframe=  441 fps=2.2 q=23.0 size=    4352KiB time=00:00:03.67 bitrate=9701.1kbits/s speed=0.0186x elapsed=0:03:17.62    \nframe=  442 fps=2.2 q=24.0 size=    4352KiB time=00:00:03.68 bitrate=9679.2kbits/s speed=0.0186x elapsed=0:03:18.14    \nframe=  443 fps=2.2 q=24.0 size=    4352KiB time=00:00:03.69 bitrate=9657.3kbits/s speed=0.0186x elapsed=0:03:18.65    \nframe=  444 fps=2.2 q=24.0 size=    4352KiB time=00:00:03.70 bitrate=9635.6kbits/s speed=0.0186x elapsed=0:03:19.17    \nframe=  444 fps=2.2 q=24.0 size=    4352KiB time=00:00:03.70 bitrate=9635.6kbits/s speed=0.0185x elapsed=0:03:19.69    \nframe=  446 fps=2.2 q=25.0 size=    4352KiB time=00:00:03.71 bitrate=9592.4kbits/s speed=0.0186x elapsed=0:03:20.20    \nframe=  447 fps=2.2 q=24.0 size=    4352KiB time=00:00:03.72 bitrate=9570.9kbits/s speed=0.0186x elapsed=0:03:20.71    \nframe=  449 fps=2.2 q=24.0 size=    4352KiB time=00:00:03.74 bitrate=9528.3kbits/s speed=0.0186x elapsed=0:03:21.23    \nframe=  450 fps=2.2 q=24.0 size=    4352KiB time=00:00:03.75 bitrate=9507.1kbits/s speed=0.0186x elapsed=0:03:21.75    \nframe=  451 fps=2.2 q=24.0 size=    4352KiB time=00:00:03.75 bitrate=9486.0kbits/s speed=0.0186x elapsed=0:03:22.28    \nframe=  452 fps=2.2 q=24.0 size=    4352KiB time=00:00:03.76 bitrate=9465.0kbits/s speed=0.0186x elapsed=0:03:22.82    \nframe=  453 fps=2.2 q=24.0 size=    4352KiB time=00:00:03.77 bitrate=9444.1kbits/s speed=0.0186x elapsed=0:03:23.36    \nframe=  454 fps=2.2 q=24.0 size=    4352KiB time=00:00:03.78 bitrate=9423.3kbits/s speed=0.0186x elapsed=0:03:23.91    \nframe=  455 fps=2.2 q=24.0 size=    4352KiB time=00:00:03.79 bitrate=9402.6kbits/s speed=0.0185x elapsed=0:03:24.45    \nframe=  456 fps=2.2 q=24.0 size=    4352KiB time=00:00:03.80 bitrate=9382.0kbits/s speed=0.0185x elapsed=0:03:25.05    \nframe=  457 fps=2.2 q=24.0 size=    4352KiB time=00:00:03.80 bitrate=9361.5kbits/s speed=0.0185x elapsed=0:03:25.61    \nframe=  458 fps=2.2 q=24.0 size=    4352KiB time=00:00:03.81 bitrate=9341.0kbits/s speed=0.0185x elapsed=0:03:26.17    \nframe=  459 fps=2.2 q=23.0 size=    4352KiB time=00:00:03.82 bitrate=9320.7kbits/s speed=0.0185x elapsed=0:03:26.73    \nframe=  459 fps=2.2 q=23.0 size=    4352KiB time=00:00:03.82 bitrate=9320.7kbits/s speed=0.0185x elapsed=0:03:27.28    \nframe=  460 fps=2.2 q=12.0 size=    4352KiB time=00:00:03.83 bitrate=9300.4kbits/s speed=0.0184x elapsed=0:03:27.82    \nframe=  462 fps=2.2 q=23.0 size=    4352KiB time=00:00:03.85 bitrate=9260.2kbits/s speed=0.0185x elapsed=0:03:28.35    \nframe=  463 fps=2.2 q=23.0 size=    4352KiB time=00:00:03.85 bitrate=9240.2kbits/s speed=0.0185x elapsed=0:03:28.89    \nframe=  464 fps=2.2 q=22.0 size=    4352KiB time=00:00:03.86 bitrate=9220.2kbits/s speed=0.0185x elapsed=0:03:29.43    \nframe=  465 fps=2.2 q=22.0 size=    4352KiB time=00:00:03.87 bitrate=9200.4kbits/s speed=0.0185x elapsed=0:03:29.99    \nframe=  466 fps=2.2 q=22.0 size=    4352KiB time=00:00:03.88 bitrate=9180.7kbits/s speed=0.0184x elapsed=0:03:30.52    \nframe=  467 fps=2.2 q=22.0 size=    4352KiB time=00:00:03.89 bitrate=9161.0kbits/s speed=0.0184x elapsed=0:03:31.06    \nframe=  468 fps=2.2 q=21.0 size=    4352KiB time=00:00:03.90 bitrate=9141.4kbits/s speed=0.0184x elapsed=0:03:31.64    \nframe=  469 fps=2.2 q=21.0 size=    4352KiB time=00:00:03.90 bitrate=9121.9kbits/s speed=0.0184x elapsed=0:03:32.20    \nframe=  470 fps=2.2 q=21.0 size=    4352KiB time=00:00:03.91 bitrate=9102.5kbits/s speed=0.0184x elapsed=0:03:32.75    \nframe=  471 fps=2.2 q=21.0 size=    4352KiB time=00:00:03.92 bitrate=9083.2kbits/s speed=0.0184x elapsed=0:03:33.28    \nframe=  472 fps=2.2 q=21.0 size=    4352KiB time=00:00:03.93 bitrate=9064.0kbits/s speed=0.0184x elapsed=0:03:33.82    \nframe=  474 fps=2.2 q=21.0 size=    4352KiB time=00:00:03.95 bitrate=9025.7kbits/s speed=0.0184x elapsed=0:03:34.35    \nframe=  474 fps=2.2 q=21.0 size=    4352KiB time=00:00:03.95 bitrate=9025.7kbits/s speed=0.0184x elapsed=0:03:34.90    \nframe=  475 fps=2.2 q=11.0 size=    4352KiB time=00:00:03.95 bitrate=9006.7kbits/s speed=0.0184x elapsed=0:03:35.44    \nframe=  476 fps=2.2 q=21.0 size=    4352KiB time=00:00:03.96 bitrate=8987.8kbits/s speed=0.0184x elapsed=0:03:35.97    \nframe=  477 fps=2.2 q=20.0 size=    4352KiB time=00:00:03.97 bitrate=8969.0kbits/s speed=0.0184x elapsed=0:03:36.51    \nframe=  478 fps=2.2 q=20.0 size=    4352KiB time=00:00:03.98 bitrate=8950.2kbits/s speed=0.0184x elapsed=0:03:37.04    \nframe=  478 fps=2.2 q=20.0 size=    4352KiB time=00:00:03.98 bitrate=8950.2kbits/s speed=0.0183x elapsed=0:03:37.59    \nframe=  479 fps=2.2 q=20.0 size=    4352KiB time=00:00:03.99 bitrate=8931.5kbits/s speed=0.0183x elapsed=0:03:38.14    \nframe=  480 fps=2.2 q=20.0 size=    4352KiB time=00:00:04.00 bitrate=8912.9kbits/s speed=0.0183x elapsed=0:03:38.71    \nframe=  481 fps=2.2 q=20.0 size=    4352KiB time=00:00:04.00 bitrate=8894.4kbits/s speed=0.0183x elapsed=0:03:39.24    \nframe=  482 fps=2.2 q=20.0 size=    4352KiB time=00:00:04.01 bitrate=8875.9kbits/s speed=0.0183x elapsed=0:03:39.78    \nframe=  484 fps=2.2 q=21.0 size=    4352KiB time=00:00:04.02 bitrate=8857.5kbits/s speed=0.0183x elapsed=0:03:40.29    \nframe=  485 fps=2.2 q=21.0 size=    4352KiB time=00:00:04.04 bitrate=8821.0kbits/s speed=0.0183x elapsed=0:03:40.82    \nframe=  486 fps=2.2 q=21.0 size=    4352KiB time=00:00:04.05 bitrate=8802.9kbits/s speed=0.0183x elapsed=0:03:41.35    \nframe=  487 fps=2.2 q=21.0 size=    4352KiB time=00:00:04.05 bitrate=8784.8kbits/s speed=0.0183x elapsed=0:03:41.90    \nframe=  488 fps=2.2 q=21.0 size=    4352KiB time=00:00:04.06 bitrate=8766.8kbits/s speed=0.0183x elapsed=0:03:42.43    \nframe=  489 fps=2.2 q=21.0 size=    4352KiB time=00:00:04.07 bitrate=8748.9kbits/s speed=0.0183x elapsed=0:03:42.99    \nframe=  489 fps=2.2 q=21.0 size=    4352KiB time=00:00:04.07 bitrate=8748.9kbits/s speed=0.0182x elapsed=0:03:43.51    \nframe=  490 fps=2.2 q=12.0 size=    4352KiB time=00:00:04.08 bitrate=8731.0kbits/s speed=0.0182x elapsed=0:03:44.04    \nframe=  491 fps=2.2 q=23.0 size=    4352KiB time=00:00:04.09 bitrate=8713.2kbits/s speed=0.0182x elapsed=0:03:44.58    \nframe=  492 fps=2.2 q=22.0 size=    4352KiB time=00:00:04.10 bitrate=8695.5kbits/s speed=0.0182x elapsed=0:03:45.12    \nframe=  494 fps=2.2 q=22.0 size=    4352KiB time=00:00:04.10 bitrate=8677.9kbits/s speed=0.0182x elapsed=0:03:45.65    \nframe=  494 fps=2.2 q=22.0 size=    4352KiB time=00:00:04.11 bitrate=8660.3kbits/s speed=0.0182x elapsed=0:03:46.18    \nframe=  495 fps=2.2 q=22.0 size=    4352KiB time=00:00:04.12 bitrate=8642.8kbits/s speed=0.0182x elapsed=0:03:46.72    \nframe=  496 fps=2.2 q=23.0 size=    4352KiB time=00:00:04.13 bitrate=8625.4kbits/s speed=0.0182x elapsed=0:03:47.26    \nframe=  497 fps=2.2 q=23.0 size=    4352KiB time=00:00:04.14 bitrate=8608.0kbits/s speed=0.0182x elapsed=0:03:47.81    \nframe=  498 fps=2.2 q=24.0 size=    4352KiB time=00:00:04.15 bitrate=8590.7kbits/s speed=0.0182x elapsed=0:03:48.37    \nframe=  499 fps=2.2 q=25.0 size=    4352KiB time=00:00:04.15 bitrate=8573.5kbits/s speed=0.0182x elapsed=0:03:48.90    \nframe=  500 fps=2.2 q=25.0 size=    4352KiB time=00:00:04.16 bitrate=8556.4kbits/s speed=0.0182x elapsed=0:03:49.43    \nframe=  500 fps=2.2 q=25.0 size=    4352KiB time=00:00:04.16 bitrate=8556.4kbits/s speed=0.0181x elapsed=0:03:49.95    \nframe=  502 fps=2.2 q=25.0 size=    4352KiB time=00:00:04.18 bitrate=8522.3kbits/s speed=0.0182x elapsed=0:03:50.48    \nframe=  504 fps=2.2 q=25.0 size=    4352KiB time=00:00:04.20 bitrate=8488.5kbits/s speed=0.0182x elapsed=0:03:51.01    \nframe=  505 fps=2.2 q=25.0 size=    4352KiB time=00:00:04.20 bitrate=8471.7kbits/s speed=0.0182x elapsed=0:03:51.53    \nframe=  506 fps=2.2 q=25.0 size=    4352KiB time=00:00:04.21 bitrate=8454.9kbits/s speed=0.0182x elapsed=0:03:52.10    \nframe=  507 fps=2.2 q=25.0 size=    4352KiB time=00:00:04.22 bitrate=8438.2kbits/s speed=0.0182x elapsed=0:03:52.66    \nframe=  509 fps=2.2 q=25.0 size=    4352KiB time=00:00:04.23 bitrate=8421.6kbits/s speed=0.0181x elapsed=0:03:53.29    \nframe=  512 fps=2.2 q=25.0 size=    4352KiB time=00:00:04.25 bitrate=8372.2kbits/s speed=0.0182x elapsed=0:03:54.12    \nframe=  514 fps=2.2 q=24.0 size=    5888KiB time=00:00:04.27 bitrate=11282.9kbits/s speed=0.0182x elapsed=0:03:54.81    \nframe=  516 fps=2.2 q=24.0 size=    5888KiB time=00:00:04.29 bitrate=11239.1kbits/s speed=0.0182x elapsed=0:03:55.53    \nframe=  519 fps=2.2 q=24.0 size=    5888KiB time=00:00:04.32 bitrate=11152.5kbits/s speed=0.0183x elapsed=0:03:56.41    \nframe=  522 fps=2.2 q=23.0 size=    5888KiB time=00:00:04.34 bitrate=11109.7kbits/s speed=0.0183x elapsed=0:03:57.07    \nframe=  524 fps=2.2 q=23.0 size=    5888KiB time=00:00:04.36 bitrate=11046.1kbits/s speed=0.0184x elapsed=0:03:57.76    \nframe=  527 fps=2.2 q=23.0 size=    5888KiB time=00:00:04.39 bitrate=10983.2kbits/s speed=0.0184x elapsed=0:03:58.36    \nframe=  527 fps=2.2 q=23.0 size=    5888KiB time=00:00:04.39 bitrate=10983.2kbits/s speed=0.0184x elapsed=0:03:59.06    \nframe=  531 fps=2.2 q=22.0 size=    5888KiB time=00:00:04.41 bitrate=10921.0kbits/s speed=0.0184x elapsed=0:03:59.66    \nframe=  534 fps=2.2 q=22.0 size=    5888KiB time=00:00:04.44 bitrate=10859.5kbits/s speed=0.0185x elapsed=0:04:00.34    \nframe=  536 fps=2.2 q=23.0 size=    5888KiB time=00:00:04.45 bitrate=10819.0kbits/s speed=0.0185x elapsed=0:04:01.11    \nframe=  538 fps=2.2 q=23.0 size=    5888KiB time=00:00:04.47 bitrate=10778.7kbits/s speed=0.0185x elapsed=0:04:01.79    \nframe=  540 fps=2.2 q=23.0 size=    5888KiB time=00:00:04.50 bitrate=10718.8kbits/s speed=0.0186x elapsed=0:04:02.48    \nframe=  542 fps=2.2 q=24.0 size=    5888KiB time=00:00:04.51 bitrate=10679.2kbits/s speed=0.0186x elapsed=0:04:03.14    \nframe=  544 fps=2.2 q=24.0 size=    5888KiB time=00:00:04.52 bitrate=10659.6kbits/s speed=0.0185x elapsed=0:04:03.95    \nframe=  546 fps=2.2 q=23.0 size=    5888KiB time=00:00:04.55 bitrate=10601.0kbits/s speed=0.0186x elapsed=0:04:04.73    \nframe=  549 fps=2.2 q=24.0 size=    5888KiB time=00:00:04.57 bitrate=10543.1kbits/s speed=0.0186x elapsed=0:04:05.34    \nframe=  551 fps=2.2 q=25.0 size=    5888KiB time=00:00:04.59 bitrate=10504.8kbits/s speed=0.0187x elapsed=0:04:06.02    \nframe=  553 fps=2.2 q=25.0 size=    5888KiB time=00:00:04.60 bitrate=10466.8kbits/s speed=0.0187x elapsed=0:04:06.69    \nframe=  555 fps=2.2 q=25.0 size=    5888KiB time=00:00:04.62 bitrate=10429.1kbits/s speed=0.0187x elapsed=0:04:07.41    \nframe=  556 fps=2.2 q=26.0 size=    5888KiB time=00:00:04.63 bitrate=10410.3kbits/s speed=0.0187x elapsed=0:04:07.97    \nframe=  556 fps=2.2 q=26.0 size=    5888KiB time=00:00:04.63 bitrate=10410.3kbits/s speed=0.0186x elapsed=0:04:08.52    \nframe=  557 fps=2.2 q=26.0 size=    5888KiB time=00:00:04.64 bitrate=10391.6kbits/s speed=0.0186x elapsed=0:04:09.06    \nframe=  557 fps=2.2 q=26.0 size=    5888KiB time=00:00:04.64 bitrate=10391.6kbits/s speed=0.0186x elapsed=0:04:09.60    \nframe=  559 fps=2.2 q=28.0 size=    5888KiB time=00:00:04.65 bitrate=10373.0kbits/s speed=0.0186x elapsed=0:04:10.15    \nframe=  560 fps=2.2 q=27.0 size=    5888KiB time=00:00:04.65 bitrate=10354.5kbits/s speed=0.0186x elapsed=0:04:10.67    \nframe=  561 fps=2.2 q=26.0 size=    5888KiB time=00:00:04.67 bitrate=10317.5kbits/s speed=0.0186x elapsed=0:04:11.20    \nframe=  562 fps=2.2 q=26.0 size=    5888KiB time=00:00:04.68 bitrate=10299.2kbits/s speed=0.0186x elapsed=0:04:11.73    \nframe=  563 fps=2.2 q=26.0 size=    5888KiB time=00:00:04.69 bitrate=10280.9kbits/s speed=0.0186x elapsed=0:04:12.29    \nframe=  564 fps=2.2 q=26.0 size=    5888KiB time=00:00:04.70 bitrate=10262.7kbits/s speed=0.0186x elapsed=0:04:12.84    \nframe=  564 fps=2.2 q=26.0 size=    5888KiB time=00:00:04.70 bitrate=10262.7kbits/s speed=0.0185x elapsed=0:04:13.54    \nframe=  566 fps=2.2 q=25.0 size=    5888KiB time=00:00:04.71 bitrate=10226.4kbits/s speed=0.0185x elapsed=0:04:14.48    \nframe=  569 fps=2.2 q=24.0 size=    5888KiB time=00:00:04.73 bitrate=10190.4kbits/s speed=0.0186x elapsed=0:04:15.07    \nframe=  572 fps=2.2 q=25.0 size=    5888KiB time=00:00:04.75 bitrate=10154.6kbits/s speed=0.0186x elapsed=0:04:15.81    \nframe=  574 fps=2.2 q=25.0 size=    5888KiB time=00:00:04.78 bitrate=10083.9kbits/s speed=0.0186x elapsed=0:04:16.80    \nframe=  576 fps=2.2 q=25.0 size=    5888KiB time=00:00:04.80 bitrate=10048.9kbits/s speed=0.0186x elapsed=0:04:17.50    \nframe=  576 fps=2.2 q=25.0 size=    5888KiB time=00:00:04.80 bitrate=10048.9kbits/s speed=0.0186x elapsed=0:04:18.15    \nframe=  576 fps=2.2 q=25.0 size=    5888KiB time=00:00:04.80 bitrate=10048.9kbits/s speed=0.0186x elapsed=0:04:18.69    \nframe=  576 fps=2.2 q=25.0 size=    5888KiB time=00:00:04.80 bitrate=10048.9kbits/s speed=0.0185x elapsed=0:04:19.22    \nframe=  576 fps=2.2 q=25.0 size=    5888KiB time=00:00:04.80 bitrate=10048.9kbits/s speed=0.0185x elapsed=0:04:19.76    \nframe=  576 fps=2.2 q=25.0 size=    5888KiB time=00:00:04.80 bitrate=10048.9kbits/s speed=0.0184x elapsed=0:04:20.29    \nframe=  576 fps=2.2 q=25.0 size=    5888KiB time=00:00:04.80 bitrate=10048.9kbits/s speed=0.0184x elapsed=0:04:20.83    \nframe=  576 fps=2.2 q=25.0 size=    5888KiB time=00:00:04.80 bitrate=10048.9kbits/s speed=0.0184x elapsed=0:04:21.37    \nframe=  576 fps=2.2 q=25.0 size=    5888KiB time=00:00:04.80 bitrate=10048.9kbits/s speed=0.0183x elapsed=0:04:22.00    \nframe=  576 fps=2.2 q=25.0 size=    5888KiB time=00:00:04.80 bitrate=10048.9kbits/s speed=0.0183x elapsed=0:04:22.77    \nframe=  576 fps=2.2 q=25.0 size=    5888KiB time=00:00:04.80 bitrate=10048.9kbits/s speed=0.0182x elapsed=0:04:23.49    \nframe=  576 fps=2.2 q=25.0 size=    5888KiB time=00:00:04.80 bitrate=10048.9kbits/s speed=0.0182x elapsed=0:04:24.27    \nframe=  576 fps=2.2 q=25.0 size=    5888KiB time=00:00:04.80 bitrate=10048.9kbits/s speed=0.0181x elapsed=0:04:25.03    \nframe=  576 fps=2.2 q=25.0 size=    5888KiB time=00:00:04.80 bitrate=10048.9kbits/s speed=0.0181x elapsed=0:04:25.89    \nframe=  576 fps=2.2 q=25.0 size=    5888KiB time=00:00:04.80 bitrate=10048.9kbits/s speed=0.018x elapsed=0:04:26.59    \nframe=  576 fps=2.2 q=25.0 size=    5888KiB time=00:00:04.80 bitrate=10048.9kbits/s speed=0.018x elapsed=0:04:27.11    \nframe=  576 fps=2.2 q=25.0 size=    5888KiB time=00:00:04.80 bitrate=10048.9kbits/s speed=0.0179x elapsed=0:04:27.62    \nframe=  576 fps=2.1 q=25.0 size=    5888KiB time=00:00:04.80 bitrate=10048.9kbits/s speed=0.0179x elapsed=0:04:28.16    \n[out#0/webm @ 0000020dbc3c9480] video:7286KiB audio:0KiB subtitle:0KiB other streams:0KiB global headers:0KiB muxing overhead: 0.065551%\nframe=  600 fps=2.2 q=28.0 Lsize=    7291KiB time=00:00:05.00 bitrate=11946.0kbits/s speed=0.0186x elapsed=0:04:28.47    \n",
  "seconds": 269.21229124069214,
  "probe_out": {}
}